<?xml version="1.0" encoding="UTF-8" standalone="no"?>
<!DOCTYPE svg PUBLIC "-//W3C//DTD SVG 1.1//EN" "http://www.w3.org/Graphics/SVG/1.1/DTD/svg11.dtd">
<svg xmlns="http://www.w3.org/2000/svg" xmlns:xlink="http://www.w3.org/1999/xlink" version="1.1" width="30pt" height="30pt" viewBox="0 0 30 30">
<g enable-background="new">
<g>
<clipPath id="cp0">
<path transform="matrix(1,0,0,-1,0,30)" d="M 12.08267 30 C 5.424704 30 0 24.5753 0 17.91733 C 0 11.25935 5.424704 5.834651 12.08267 5.834651 C 14.96177 5.834651 17.60654 6.851845 19.68643 8.542836 L 27.86306 .3661988 C 28.35133 -.1220663 29.14554 -.1220663 29.6338 .3661988 C 30.12207 .8544638 30.12207 1.635671 29.6338 2.123936 L 21.45716 10.30057 C 23.1514 12.38054 24.16535 15.0349 24.16535 17.91724 C 24.16535 24.57521 18.74065 30 12.08267 30 Z M 12 27.6 C 17.31673 27.6 21.6 23.31673 21.6 18 C 21.6 12.68327 17.31673 8.4 12 8.4 C 6.68327 8.4 2.4 12.68327 2.4 18 C 2.4 23.31673 6.68327 27.6 12 27.6 Z "/>
</clipPath>
<g clip-path="url(#cp0)">
<clipPath id="cp1">
<path transform="matrix(1,0,0,-1,0,30)" d="M -267 -548 L 108 -548 L 108 232 L -267 232 Z "/>
</clipPath>
<g clip-path="url(#cp1)">
<path transform="matrix(1,0,0,-1,0,30)" d="M -5 35 L 35 35 L 35 -5 L -5 -5 Z " fill="#bebebe"/>
</g>
</g>
<clipPath id="cp2">
<path transform="matrix(1,0,0,-1,0,30)" d="M 7.2 16.8 C 7.862742 16.8 8.4 17.33726 8.4 18 C 8.4 18.66274 7.862742 19.2 7.2 19.2 C 6.537258 19.2 6 18.66274 6 18 C 6 17.33726 6.537258 16.8 7.2 16.8 Z " fill-rule="evenodd"/>
</clipPath>
<g clip-path="url(#cp2)">
<clipPath id="cp3">
<path transform="matrix(1,0,0,-1,0,30)" d="M -267 -548 L 108 -548 L 108 232 L -267 232 Z "/>
</clipPath>
<g clip-path="url(#cp3)">
<g>
<clipPath id="cp4">
<path transform="matrix(1,0,0,-1,0,30)" d="M -6 4 L 21 4 L 21 32 L -6 32 Z "/>
</clipPath>
<g clip-path="url(#cp4)">
<clipPath id="cp5">
<path transform="matrix(1,0,0,-1,0,30)" d="M 7.2 16.8 C 7.862742 16.8 8.4 17.33726 8.4 18 C 8.4 18.66274 7.862742 19.2 7.2 19.2 C 6.537258 19.2 6 18.66274 6 18 C 6 17.33726 6.537258 16.8 7.2 16.8 Z " fill-rule="evenodd"/>
</clipPath>
<g clip-path="url(#cp5)">
<clipPath id="cp6">
<path transform="matrix(1,0,0,-1,0,30)" d="M 6 16 L 9 16 L 9 20 L 6 20 Z "/>
</clipPath>
<g clip-path="url(#cp6)">
<path transform="matrix(1,0,0,-1,0,30)" d="M 7.2 16.8 C 7.862742 16.8 8.4 17.33726 8.4 18 C 8.4 18.66274 7.862742 19.2 7.2 19.2 C 6.537258 19.2 6 18.66274 6 18 C 6 17.33726 6.537258 16.8 7.2 16.8 Z " fill="#bebebe"/>
</g>
</g>
<clipPath id="cp7">
<path transform="matrix(1,0,0,-1,0,30)" d="M 6 16 L 9 16 L 9 20 L 6 20 Z "/>
</clipPath>
<g clip-path="url(#cp7)">
<path transform="matrix(1,0,0,1,6,10.799999)" stroke-width="2.4" stroke-linecap="butt" stroke-miterlimit="10" stroke-linejoin="miter" fill="none" stroke="#bebebe" d="M 1.2 2.4 C 1.862742 2.4 2.4 1.862742 2.4 1.2 C 2.4 .5372583 1.862742 0 1.2 0 C .5372583 0 0 .5372583 0 1.2 C 0 1.862742 .5372583 2.4 1.2 2.4 Z "/>
</g>
</g>
</g>
</g>
</g>
<clipPath id="cp8">
<path transform="matrix(1,0,0,-1,0,30)" d="M 12 16.8 C 12.66274 16.8 13.2 17.33726 13.2 18 C 13.2 18.66274 12.66274 19.2 12 19.2 C 11.33726 19.2 10.8 18.66274 10.8 18 C 10.8 17.33726 11.33726 16.8 12 16.8 Z " fill-rule="evenodd"/>
</clipPath>
<g clip-path="url(#cp8)">
<clipPath id="cp9">
<path transform="matrix(1,0,0,-1,0,30)" d="M -267 -548 L 108 -548 L 108 232 L -267 232 Z "/>
</clipPath>
<g clip-path="url(#cp9)">
<g>
<clipPath id="cp10">
<path transform="matrix(1,0,0,-1,0,30)" d="M -2 4 L 26 4 L 26 32 L -2 32 Z "/>
</clipPath>
<g clip-path="url(#cp10)">
<clipPath id="cp11">
<path transform="matrix(1,0,0,-1,0,30)" d="M 12 16.8 C 12.66274 16.8 13.2 17.33726 13.2 18 C 13.2 18.66274 12.66274 19.2 12 19.2 C 11.33726 19.2 10.8 18.66274 10.8 18 C 10.8 17.33726 11.33726 16.8 12 16.8 Z " fill-rule="evenodd"/>
</clipPath>
<g clip-path="url(#cp11)">
<clipPath id="cp12">
<path transform="matrix(1,0,0,-1,0,30)" d="M 10 16 L 14 16 L 14 20 L 10 20 Z "/>
</clipPath>
<g clip-path="url(#cp12)">
<path transform="matrix(1,0,0,-1,0,30)" d="M 12 16.8 C 12.66274 16.8 13.2 17.33726 13.2 18 C 13.2 18.66274 12.66274 19.2 12 19.2 C 11.33726 19.2 10.8 18.66274 10.8 18 C 10.8 17.33726 11.33726 16.8 12 16.8 Z " fill="#bebebe"/>
</g>
</g>
<clipPath id="cp13">
<path transform="matrix(1,0,0,-1,0,30)" d="M 10 16 L 14 16 L 14 20 L 10 20 Z "/>
</clipPath>
<g clip-path="url(#cp13)">
<path transform="matrix(1,0,0,1,10.8,10.799999)" stroke-width="2.4" stroke-linecap="butt" stroke-miterlimit="10" stroke-linejoin="miter" fill="none" stroke="#bebebe" d="M 1.2 2.4 C 1.862742 2.4 2.4 1.862742 2.4 1.2 C 2.4 .5372583 1.862742 0 1.2 0 C .5372583 0 0 .5372583 0 1.2 C 0 1.862742 .5372583 2.4 1.2 2.4 Z "/>
</g>
</g>
</g>
</g>
</g>
<clipPath id="cp14">
<path transform="matrix(1,0,0,-1,0,30)" d="M 16.8 16.8 C 17.46274 16.8 18 17.33726 18 18 C 18 18.66274 17.46274 19.2 16.8 19.2 C 16.13726 19.2 15.6 18.66274 15.6 18 C 15.6 17.33726 16.13726 16.8 16.8 16.8 Z " fill-rule="evenodd"/>
</clipPath>
<g clip-path="url(#cp14)">
<clipPath id="cp15">
<path transform="matrix(1,0,0,-1,0,30)" d="M -267 -548 L 108 -548 L 108 232 L -267 232 Z "/>
</clipPath>
<g clip-path="url(#cp15)">
<g>
<clipPath id="cp16">
<path transform="matrix(1,0,0,-1,0,30)" d="M 3 4 L 31 4 L 31 32 L 3 32 Z "/>
</clipPath>
<g clip-path="url(#cp16)">
<clipPath id="cp17">
<path transform="matrix(1,0,0,-1,0,30)" d="M 16.8 16.8 C 17.46274 16.8 18 17.33726 18 18 C 18 18.66274 17.46274 19.2 16.8 19.2 C 16.13726 19.2 15.6 18.66274 15.6 18 C 15.6 17.33726 16.13726 16.8 16.8 16.8 Z " fill-rule="evenodd"/>
</clipPath>
<g clip-path="url(#cp17)">
<clipPath id="cp18">
<path transform="matrix(1,0,0,-1,0,30)" d="M 15 16 L 19 16 L 19 20 L 15 20 Z "/>
</clipPath>
<g clip-path="url(#cp18)">
<path transform="matrix(1,0,0,-1,0,30)" d="M 16.8 16.8 C 17.46274 16.8 18 17.33726 18 18 C 18 18.66274 17.46274 19.2 16.8 19.2 C 16.13726 19.2 15.6 18.66274 15.6 18 C 15.6 17.33726 16.13726 16.8 16.8 16.8 Z " fill="#bebebe"/>
</g>
</g>
<clipPath id="cp19">
<path transform="matrix(1,0,0,-1,0,30)" d="M 15 16 L 19 16 L 19 20 L 15 20 Z "/>
</clipPath>
<g clip-path="url(#cp19)">
<path transform="matrix(1,0,0,1,15.6,10.799999)" stroke-width="2.4" stroke-linecap="butt" stroke-miterlimit="10" stroke-linejoin="miter" fill="none" stroke="#bebebe" d="M 1.2 2.4 C 1.862742 2.4 2.4 1.862742 2.4 1.2 C 2.4 .5372583 1.862742 0 1.2 0 C .5372583 0 0 .5372583 0 1.2 C 0 1.862742 .5372583 2.4 1.2 2.4 Z "/>
</g>
</g>
</g>
</g>
</g>
</g>
</g>
</svg>
