<?xml version="1.0" encoding="UTF-8" standalone="no"?>
<!DOCTYPE svg PUBLIC "-//W3C//DTD SVG 1.1//EN" "http://www.w3.org/Graphics/SVG/1.1/DTD/svg11.dtd">
<svg xmlns="http://www.w3.org/2000/svg" xmlns:xlink="http://www.w3.org/1999/xlink" version="1.1" width="15pt" height="9pt" viewBox="0 0 15 9">
<g enable-background="new">
<clipPath id="cp0">
<path transform="matrix(1,0,0,-1,0,9)" d="M 14.82256 0 C 14.89403 0 14.95846 .04941838 14.98658 .1290423 C 15.0147 .2086628 14.99713 .2965208 14.94792 .3541768 L 7.623369 8.936851 C 7.588222 8.978035 7.54136 9 7.499186 9 C 7.457012 9 7.406635 8.979408 7.375003 8.936851 L .05285259 .358394 C .00247569 .3034827 -.01509639 .21288 .01419041 .1291407 C .04230754 .0495203 .1067415 .00009840098 .1782085 .00009840098 L 14.82256 0 Z "/>
</clipPath>
<g clip-path="url(#cp0)">
<clipPath id="cp1">
<path transform="matrix(1,0,0,-1,0,9)" d="M -21 -878 L 354 -878 L 354 323 L -21 323 Z "/>
</clipPath>
<g clip-path="url(#cp1)">
<path transform="matrix(1,0,0,-1,0,9)" d="M -5 14 L 20 14 L 20 -5 L -5 -5 Z "/>
</g>
</g>
</g>
</svg>
